<svg xmlns="http://www.w3.org/2000/svg" xmlns:xlink="http://www.w3.org/1999/xlink" version="1.1" x="0px" y="0px" viewBox="0 0 100 125" style="enable-background:new 0 0 100 100;fill:#eea6a6;" xml:space="preserve"><g><path d="M95.0791016,67.7597656c0-4.6865234-6.2822266-8.7021484-17.6904297-11.3076172   c-0.1514893-0.0355835-0.3015747-0.0391846-0.4489136-0.0280151c-3.2032471-4.7097778-8.1503906-8.3825073-15.062561-8.7700195   c-0.1900635-0.3688354-0.3942261-0.7286987-0.6281738-1.0686646c-1.8009644-2.6172485-4.6535645-3.9785156-8.4625854-4.0765991   c-1.828186-1.5142822-4.4633789-2.6582642-8.270813-2.6582642c-6.0081177,0-8.7172852,4.2994995-9.5218506,5.909729   c-4.2955933,1.9119263-8.1520386,5.5826416-11.0578003,10.4012451   c-7.3051758,1.5457153-19.0150757,5.0452881-19.0150757,11.5982056c0,3.8495483,4.1375732,6.9484863,10.5506592,9.2493286   c0.9439087,2.4069214,6.6976929,12.9049683,35.210083,12.9049683c28.1463623,0,33.0820923-10.2584229,33.8891602-12.920105   C90.9597778,74.6946411,95.0791016,71.6008301,95.0791016,67.7597656z M37.6865234,47.9228516   c2.689209-0.8668823,5.204895-0.7355347,7.2526855,0.3222656c-5.0238647,0.9989014-14.0662842,4.6890259-17.5368652,18.2529297   c-0.2050781,0.8027344,0.2783203,1.6201172,1.0810547,1.8251953c0.125,0.0322266,0.25,0.046875,0.3730469,0.046875   c0.6689453,0,1.2783203-0.4501953,1.4521484-1.1279297c3.75177-14.6636963,14.3473511-16.2108765,17.2607422-16.3562622   c0.4776611,1.151123,0.5337524,2.5096436,0.310791,3.9512939c-3.1541138-0.1615601-9.4611206,1.0811768-12.8977051,12.5182495   c-0.2382812,0.7929688,0.2109375,1.6298828,1.0048828,1.8681641c0.1435547,0.0429688,0.2890625,0.0634766,0.4326172,0.0634766   c0.6445312,0,1.2402344-0.4189453,1.4355469-1.0683594c2.5994263-8.6508789,6.6756592-10.3131104,9.2498779-10.4009399   c-1.7221069,4.8970947-5.3039551,9.706543-5.3660889,9.7876587c-0.5029297,0.6572266-0.3779297,1.5986328,0.2802734,2.1025391   c0.2714844,0.2080078,0.5927734,0.3085938,0.9101562,0.3085938c0.4511719,0,0.8964844-0.2021484,1.1923828-0.5878906   C44.625,68.7705078,56.3662109,53.2373047,48.0185547,46.65625c-2.2715454-1.7907715-5.0866699-2.5557861-8.135376-2.2514648   c1.0870972-0.8522949,2.593811-1.5541992,4.6324463-1.5541992c4.0478516,0,6.8837891,1.5463867,8.4277344,4.5966797   c2.6142578,5.1630859,1.0224609,13.9101562-3.7021484,20.3447266c-0.4902344,0.6679688-0.3466797,1.6064453,0.3212891,2.0966797   c0.2675781,0.1962891,0.578125,0.2910156,0.8867188,0.2910156c0.4609375,0,0.9160156-0.2119141,1.2099609-0.6123047   c5.4345703-7.4013672,7.1005859-17.2744141,3.9609375-23.4755859c-0.0259399-0.0512085-0.0564575-0.1036377-0.0834961-0.1551514   c1.3862305,0.4434204,2.4616089,1.2175903,3.2397461,2.3475342c3.4150391,4.9580078,0.4638672,15.7402344-0.9619141,19.4765625   c-0.2949219,0.7734375,0.0927734,1.640625,0.8662109,1.9365234c0.1757812,0.0664062,0.3574219,0.0986328,0.5351562,0.0986328   c0.6035156,0,1.1728516-0.3671875,1.4013672-0.9638672c0.1035767-0.2711182,1.2333374-3.2774048,2.012207-7.1679688   c1.201416,0.8039551,2.87146,2.5428467,3.5795898,6.2060547c0.1386719,0.7177734,0.7666016,1.2158203,1.4707031,1.2158203   c0.0947266,0,0.1904297-0.0087891,0.2861328-0.0273438c0.8134766-0.1572266,1.3457031-0.9443359,1.1884766-1.7568359   c-1.1022949-5.7047729-4.2498779-7.9421387-6.0183105-8.7710571c0.0924072-0.7686768,0.1586914-1.5507812,0.1960449-2.3357544   c2.032959,0.1841431,6.791626,1.6043701,8.7236328,10.5726318c0.1523438,0.703125,0.7734375,1.1835938,1.4648438,1.1835938   c0.1054688,0,0.2119141-0.0107422,0.3183594-0.0332031c0.8095703-0.1748047,1.3242188-0.9726562,1.1503906-1.7832031   c-2.3768921-11.0249634-8.8550415-12.7203369-11.6846313-12.9213867c-0.0612793-0.8375244-0.1745605-1.65979-0.345459-2.4561157   c4.0846558,0.5747681,11.9160156,3.2355957,14.8865356,14.9605103c0.171875,0.6796875,0.7832031,1.1318359,1.453125,1.1318359   c0.1220703,0,0.2460938-0.0146484,0.3691406-0.0458984c0.8037109-0.203125,1.2890625-1.0195312,1.0859375-1.8222656   c-0.0284424-0.1122437-0.065979-0.2255249-0.0959473-0.3380127c2.3262939,0.9020996,2.6668701,1.5811768,2.6877441,1.5811768   c-0.5546875,1.8193359-12.2128906,5.2109375-32.5429688,5.2109375c-20.3378906,0-31.9970703-3.3935547-32.5439453-5.1484375   c0.0021362-0.0072021,0.2177734-0.5363159,1.8414917-1.2853394c-0.0112305,0.0386353-0.0247192,0.0757446-0.0358276,0.1144409   c-0.2275391,0.7958984,0.2324219,1.6269531,1.0292969,1.8554688c0.7939453,0.2265625,1.6259766-0.2333984,1.8554688-1.0292969   C26.0371094,55.1660156,32.5869141,49.5678711,37.6865234,47.9228516z M50.6816406,86.9140625   c-19.887085,0-27.7669678-5.2360229-30.7556763-8.5267944C28.3808594,80.6439209,39.3496094,81.8173828,50,81.8173828   c10.8311768,0,21.9955444-1.211792,30.5061035-3.5443115C78.0448608,81.4960327,70.9020386,86.9140625,50.6816406,86.9140625z    M50,78.8173828c-24.7978516,0-42.0791016-5.8271484-42.0791016-11.0576172c0-2.2191162,3.7885132-5.5547485,14.1593018-8.0946655   c-0.2481079,0.5405884-0.4839478,1.0924072-0.7093506,1.6530762c-2.6616821,0.8432007-6.1081543,2.2669678-6.1081543,4.9367065   c0,6.4580078,22.3398438,8.1806641,35.5400391,8.1806641s35.5400391-1.7226562,35.5400391-8.1806641   c0-2.7880859-3.7744141-4.2421875-6.6132812-5.0927734c-0.0909424-0.0270996-0.1824341-0.0428467-0.2735596-0.0524292   c-0.1655884-0.3994751-0.3393555-0.7962036-0.5253296-1.190918c9.6488037,2.5249023,13.1484985,5.7452393,13.1484985,7.8410034   C92.0791016,72.9902344,74.7978516,78.8173828,50,78.8173828z"/><path d="M48.8349609,30.2207031c-0.5253906,0.640625-0.4316406,1.5859375,0.2089844,2.1108398   c0.2792969,0.2285156,0.6162109,0.3398438,0.9501953,0.3398438c0.4345703,0,0.8642578-0.1875,1.1611328-0.5493164   c1.6943359-2.0673828,3.8769531-7.253418,0.0107422-12.0849609c-3.1621094-3.9521484-0.4228516-7.0600586-0.0917969-7.4091797   c0.5732422-0.5932617,0.5595703-1.5385742-0.03125-2.1152344c-0.5927734-0.5776367-1.5410156-0.5673828-2.1210938,0.0253906   c-1.7490234,1.7910156-4.0195312,6.4726562-0.0976562,11.3730469   C52.1210938,26.0322266,48.9658203,30.0571289,48.8349609,30.2207031z"/><path d="M33.7832031,32.5800781c-0.5253906,0.6411133-0.4316406,1.5859375,0.2099609,2.1108398   c0.2783203,0.2285156,0.6152344,0.3398438,0.9492188,0.3398438c0.4345703,0,0.8652344-0.1875,1.1611328-0.5493164   c1.1396484-1.3911133,2.6083984-4.8798828,0.0107422-8.1269531c-1.5771484-1.9716797-0.3535156-3.4824219-0.0869141-3.7705078   c0.5683594-0.59375,0.5527344-1.5351562-0.0361328-2.1103516c-0.5927734-0.578125-1.5419922-0.5673828-2.1210938,0.0253906   c-1.1943359,1.2231445-2.7519531,4.4130859-0.0976562,7.7294922   C35.4589844,30.3374023,33.9521484,32.3657227,33.7832031,32.5800781z"/><path d="M65.4492188,32.5800781c-0.5253906,0.640625-0.4316406,1.5859375,0.2089844,2.1108398   c0.2792969,0.2285156,0.6162109,0.3398438,0.9501953,0.3398438c0.4335938,0,0.8642578-0.1875,1.1611328-0.5493164   c1.140625-1.3911133,2.609375-4.8798828,0.0107422-8.1269531c-1.5771484-1.9716797-0.3535156-3.4824219-0.0869141-3.7705078   c0.5683594-0.59375,0.5527344-1.5351562-0.0361328-2.1103516c-0.5927734-0.578125-1.5419922-0.5673828-2.1210938,0.0253906   c-1.1943359,1.2231445-2.7519531,4.4130859-0.0976562,7.7299805   C67.1259766,30.3374023,65.6191406,32.3652344,65.4492188,32.5800781z"/></g>></svg>
